<svg width="0" height="0" class="hidden" xmlns="http://www.w3.org/2000/svg">
  <symbol fill="none" xmlns="http://www.w3.org/2000/svg" viewBox="0 0 77 23" id="arrow-right">
    <path d="M76.0748 12.0462C76.6526 11.4526 76.6398 10.5029 76.0461 9.92508L66.3721 0.508999C65.7784 -0.0688181 64.8288 -0.0559845 64.2509 0.537664C63.6731 1.13131 63.686 2.08097 64.2796 2.65879L72.8788 11.0286L64.5089 19.6278C63.9311 20.2215 63.9439 21.1711 64.5376 21.7489C65.1312 22.3267 66.0809 22.3139 66.6587 21.7203L76.0748 12.0462ZM1.02027 13.4999L75.0202 12.4998L74.9796 9.50011L0.979731 10.5001L1.02027 13.4999Z" fill="black"></path>
  </symbol>
  <symbol version="1.1" xmlns="http://www.w3.org/2000/svg" viewBox="0 0 1024 1024" id="award">
    <g id="icomoon-ignore"></g>
    <path d="M512.231 639.999l-140.984 367.275-55.22-124.027-124.027 55.22 139.295-362.876c-64.959-52.806-106.462-133.352-106.462-223.591 0-159.058 128.942-288 288-288s288 128.942 288 288c0 90.239-41.503 170.785-106.462 223.591l139.295 362.876-124.027-55.22-55.22 124.027-140.984-367.275c-0.201 0-0.402 0.001-0.603 0.001s-0.402 0-0.603-0.001v0 0zM478.722 638.001v0 0c-43.999-5.192-84.96-20.303-120.587-43.034l-108.737 283.27 82.685-36.814 36.814 82.685 109.826-286.107zM667.533 594.967v0 0c-35.627 22.731-76.589 37.842-120.587 43.034l109.826 286.107 36.814-82.685 82.685 36.814-108.737-283.27zM512.834 608c141.385 0 256-114.615 256-256s-114.615-256-256-256c-141.385 0-256 114.615-256 256s114.615 256 256 256v0zM512.834 544v0c-106.039 0-192-85.961-192-192s85.961-192 192-192c106.039 0 192 85.961 192 192s-85.961 192-192 192zM512.834 512c88.366 0 160-71.634 160-160s-71.634-160-160-160c-88.366 0-160 71.634-160 160s71.634 160 160 160v0z"></path>
  </symbol>
  <symbol xmlns="http://www.w3.org/2000/svg" viewBox="0 0 448 512" id="bars">
    <path d="M0 96C0 78.33 14.33 64 32 64H416C433.7 64 448 78.33 448 96C448 113.7 433.7 128 416 128H32C14.33 128 0 113.7 0 96zM0 256C0 238.3 14.33 224 32 224H416C433.7 224 448 238.3 448 256C448 273.7 433.7 288 416 288H32C14.33 288 0 273.7 0 256zM416 448H32C14.33 448 0 433.7 0 416C0 398.3 14.33 384 32 384H416C433.7 384 448 398.3 448 416C448 433.7 433.7 448 416 448z"></path>
  </symbol>
  <symbol xmlns="http://www.w3.org/2000/svg" viewBox="0 0 512 512" id="clock">
    <path d="M232 120C232 106.7 242.7 96 256 96C269.3 96 280 106.7 280 120V243.2L365.3 300C376.3 307.4 379.3 322.3 371.1 333.3C364.6 344.3 349.7 347.3 338.7 339.1L242.7 275.1C236 271.5 232 264 232 255.1L232 120zM256 0C397.4 0 512 114.6 512 256C512 397.4 397.4 512 256 512C114.6 512 0 397.4 0 256C0 114.6 114.6 0 256 0zM48 256C48 370.9 141.1 464 256 464C370.9 464 464 370.9 464 256C464 141.1 370.9 48 256 48C141.1 48 48 141.1 48 256z"></path>
  </symbol>
  <symbol xmlns="http://www.w3.org/2000/svg" viewBox="0 0 512 512" id="envelope">
    <path d="M464 64C490.5 64 512 85.49 512 112C512 127.1 504.9 141.3 492.8 150.4L275.2 313.6C263.8 322.1 248.2 322.1 236.8 313.6L19.2 150.4C7.113 141.3 0 127.1 0 112C0 85.49 21.49 64 48 64H464zM217.6 339.2C240.4 356.3 271.6 356.3 294.4 339.2L512 176V384C512 419.3 483.3 448 448 448H64C28.65 448 0 419.3 0 384V176L217.6 339.2z"></path>
  </symbol>
  <symbol xmlns="http://www.w3.org/2000/svg" viewBox="0 0 320 512" id="facebook">
    <path d="M279.14 288l14.22-92.66h-88.91v-60.13c0-25.35 12.42-50.06 52.24-50.06h40.42V6.26S260.43 0 225.36 0c-73.22 0-121.08 44.38-121.08 124.72v70.62H22.89V288h81.39v224h100.17V288z"></path>
  </symbol>
  <symbol version="1.1" xmlns="http://www.w3.org/2000/svg" viewBox="0 0 512 512" id="fire">
    <g id="icomoon-ignore"></g>
    <path d="M160.504 512c-34.123-71.004-15.951-111.689 10.275-150.022 28.72-41.978 36.122-83.533 36.122-83.533s22.577 29.35 13.546 75.254c39.886-44.4 47.412-115.14 41.391-142.232 90.157 63.006 128.688 199.428 76.761 300.533 276.186-156.266 68.699-390.086 32.577-416.425 12.041 26.338 14.324 70.925-10 92.563-41.176-156.138-142.986-188.138-142.986-188.138 12.041 80.522-43.648 168.572-97.348 234.365-1.887-32.108-3.891-54.264-20.775-84.99-3.79 58.328-48.366 105.874-60.437 164.314-16.351 79.143 12.248 137.090 120.874 198.311z"></path>
  </symbol>
  <symbol version="1.1" xmlns="http://www.w3.org/2000/svg" viewBox="0 0 512 512" id="folder">
    <g id="icomoon-ignore"></g>
    <path d="M416 480l96-256h-416l-96 256zM64 192l-64 288v-416h144l64 64h208v64z"></path>
  </symbol>
  <symbol version="1.1" xmlns="http://www.w3.org/2000/svg" viewBox="0 0 512 512" id="headphones">
    <g id="icomoon-ignore"></g>
    <path d="M144 288h-32v224h32c8.8 0 16-7.2 16-16v-192c0-8.8-7.2-16-16-16z"></path>
    <path d="M368 288c-8.801 0-16 7.2-16 16v192c0 8.8 7.199 16 16 16h32v-224h-32z"></path>
    <path d="M512 256c0-141.385-114.615-256-256-256s-256 114.615-256 256c0 30.706 5.415 60.145 15.328 87.424-9.739 16.603-15.328 35.935-15.328 56.576 0 56.423 41.724 103.094 96 110.858v-221.709c-15.957 2.283-30.832 7.921-43.877 16.189-2.696-13.359-4.123-27.182-4.123-41.338 0-114.875 93.125-208 208-208s208 93.125 208 208c0 14.157-1.415 27.984-4.11 41.348-13.050-8.273-27.927-13.924-43.89-16.209v221.72c54.274-7.766 96-54.437 96-110.857 0-20.637-5.589-39.967-15.324-56.569 9.914-27.283 15.324-56.726 15.324-87.433z"></path>
  </symbol>
  <symbol xmlns="http://www.w3.org/2000/svg" viewBox="0 0 448 512" id="instagram">
    <path d="M224.1 141c-63.6 0-114.9 51.3-114.9 114.9s51.3 114.9 114.9 114.9S339 319.5 339 255.9 287.7 141 224.1 141zm0 189.6c-41.1 0-74.7-33.5-74.7-74.7s33.5-74.7 74.7-74.7 74.7 33.5 74.7 74.7-33.6 74.7-74.7 74.7zm146.4-194.3c0 14.9-12 26.8-26.8 26.8-14.9 0-26.8-12-26.8-26.8s12-26.8 26.8-26.8 26.8 12 26.8 26.8zm76.1 27.2c-1.7-35.9-9.9-67.7-36.2-93.9-26.2-26.2-58-34.4-93.9-36.2-37-2.1-147.9-2.1-184.9 0-35.8 1.7-67.6 9.9-93.9 36.1s-34.4 58-36.2 93.9c-2.1 37-2.1 147.9 0 184.9 1.7 35.9 9.9 67.7 36.2 93.9s58 34.4 93.9 36.2c37 2.1 147.9 2.1 184.9 0 35.9-1.7 67.7-9.9 93.9-36.2 26.2-26.2 34.4-58 36.2-93.9 2.1-37 2.1-147.8 0-184.8zM398.8 388c-7.8 19.6-22.9 34.7-42.6 42.6-29.5 11.7-99.5 9-132.1 9s-102.7 2.6-132.1-9c-19.6-7.8-34.7-22.9-42.6-42.6-11.7-29.5-9-99.5-9-132.1s-2.6-102.7 9-132.1c7.8-19.6 22.9-34.7 42.6-42.6 29.5-11.7 99.5-9 132.1-9s102.7-2.6 132.1 9c19.6 7.8 34.7 22.9 42.6 42.6 11.7 29.5 9 99.5 9 132.1s2.7 102.7-9 132.1z"></path>
  </symbol>
  <symbol xmlns="http://www.w3.org/2000/svg" viewBox="0 0 480 512" id="logo">
    <path d="M455.93,23.2C429.23,30,387.79,51.69,341.35,90.66A206,206,0,0,0,240,64C125.13,64,32,157.12,32,272s93.13,208,208,208,208-93.13,208-208a207.25,207.25,0,0,0-58.75-144.81,155.35,155.35,0,0,0-17,27.4A176.16,176.16,0,0,1,417.1,272c0,97.66-79.44,177.11-177.09,177.11a175.81,175.81,0,0,1-87.63-23.4c82.94-107.33,150.79-37.77,184.31-226.65,5.79-32.62,28-94.26,126.23-160.18C471,33.45,465.35,20.8,455.93,23.2ZM125,406.4A176.66,176.66,0,0,1,62.9,272C62.9,174.34,142.35,94.9,240,94.9a174,174,0,0,1,76.63,17.75C250.64,174.76,189.77,265.52,125,406.4Z"></path>
  </symbol>
  <symbol xmlns="http://www.w3.org/2000/svg" viewBox="0 0 128 512" id="menu">
    <path d="M64 360C94.93 360 120 385.1 120 416C120 446.9 94.93 472 64 472C33.07 472 8 446.9 8 416C8 385.1 33.07 360 64 360zM64 200C94.93 200 120 225.1 120 256C120 286.9 94.93 312 64 312C33.07 312 8 286.9 8 256C8 225.1 33.07 200 64 200zM64 152C33.07 152 8 126.9 8 96C8 65.07 33.07 40 64 40C94.93 40 120 65.07 120 96C120 126.9 94.93 152 64 152z"></path>
  </symbol>
  <symbol xmlns="http://www.w3.org/2000/svg" viewBox="0 0 512 512" id="paper">
    <path d="M511.6 36.86l-64 415.1c-1.5 9.734-7.375 18.22-15.97 23.05c-4.844 2.719-10.27 4.097-15.68 4.097c-4.188 0-8.319-.8154-12.29-2.472l-122.6-51.1l-50.86 76.29C226.3 508.5 219.8 512 212.8 512C201.3 512 192 502.7 192 491.2v-96.18c0-7.115 2.372-14.03 6.742-19.64L416 96l-293.7 264.3L19.69 317.5C8.438 312.8 .8125 302.2 .0625 289.1s5.469-23.72 16.06-29.77l448-255.1c10.69-6.109 23.88-5.547 34 1.406S513.5 24.72 511.6 36.86z"></path>
  </symbol>
  <symbol version="1.1" xmlns="http://www.w3.org/2000/svg" viewBox="0 0 512 512" id="phone">
    <g id="icomoon-ignore"></g>
    <path d="M352 320c-32 32-32 64-64 64s-64-32-96-64-64-64-64-96 32-32 64-64-64-128-96-128-96 96-96 96c0 64 65.75 193.75 128 256s192 128 256 128c0 0 96-64 96-96s-96-128-128-96z"></path>
  </symbol>
  <symbol xmlns="http://www.w3.org/2000/svg" viewBox="0 0 384 512" id="paintrest">
    <path d="M204 6.5C101.4 6.5 0 74.9 0 185.6 0 256 39.6 296 63.6 296c9.9 0 15.6-27.6 15.6-35.4 0-9.3-23.7-29.1-23.7-67.8 0-80.4 61.2-137.4 140.4-137.4 68.1 0 118.5 38.7 118.5 109.8 0 53.1-21.3 152.7-90.3 152.7-24.9 0-46.2-18-46.2-43.8 0-37.8 26.4-74.4 26.4-113.4 0-66.2-93.9-54.2-93.9 25.8 0 16.8 2.1 35.4 9.6 50.7-13.8 59.4-42 147.9-42 209.1 0 18.9 2.7 37.5 4.5 56.4 3.4 3.8 1.7 3.4 6.9 1.5 50.4-69 48.6-82.5 71.4-172.8 12.3 23.4 44.1 36 69.3 36 106.2 0 153.9-103.5 153.9-196.8C384 71.3 298.2 6.5 204 6.5z"></path>
  </symbol>
  <symbol version="1.1" xmlns="http://www.w3.org/2000/svg" viewBox="0 0 512 512" id="sliders">
    <g id="icomoon-ignore"></g>
    <path d="M448 224h8c13.2 0 24-10.8 24-24v-80c0-13.2-10.8-24-24-24h-8v-96h-64v96h-8c-13.2 0-24 10.8-24 24v80c0 13.2 10.8 24 24 24h8v288h64v-288zM384 128h64v64h-64v-64zM296 416c13.2 0 24-10.8 24-24v-80c0-13.2-10.8-24-24-24h-8v-288h-64v288h-8c-13.2 0-24 10.8-24 24v80c0 13.2 10.8 24 24 24h8v96h64v-96h8zM224 320h64v64h-64v-64zM136 224c13.2 0 24-10.8 24-24v-80c0-13.2-10.8-24-24-24h-8v-96h-64v96h-8c-13.2 0-24 10.8-24 24v80c0 13.2 10.8 24 24 24h8v288h64v-288h8zM64 128h64v64h-64v-64z"></path>
  </symbol>
  <symbol xmlns="http://www.w3.org/2000/svg" viewBox="0 0 576 512" id="star">
    <path d="M287.9 0C297.1 0 305.5 5.25 309.5 13.52L378.1 154.8L531.4 177.5C540.4 178.8 547.8 185.1 550.7 193.7C553.5 202.4 551.2 211.9 544.8 218.2L433.6 328.4L459.9 483.9C461.4 492.9 457.7 502.1 450.2 507.4C442.8 512.7 432.1 513.4 424.9 509.1L287.9 435.9L150.1 509.1C142.9 513.4 133.1 512.7 125.6 507.4C118.2 502.1 114.5 492.9 115.1 483.9L142.2 328.4L31.11 218.2C24.65 211.9 22.36 202.4 25.2 193.7C28.03 185.1 35.5 178.8 44.49 177.5L197.7 154.8L266.3 13.52C270.4 5.249 278.7 0 287.9 0L287.9 0zM287.9 78.95L235.4 187.2C231.9 194.3 225.1 199.3 217.3 200.5L98.98 217.9L184.9 303C190.4 308.5 192.9 316.4 191.6 324.1L171.4 443.7L276.6 387.5C283.7 383.7 292.2 383.7 299.2 387.5L404.4 443.7L384.2 324.1C382.9 316.4 385.5 308.5 391 303L476.9 217.9L358.6 200.5C350.7 199.3 343.9 194.3 340.5 187.2L287.9 78.95z"></path>
  </symbol>
  <symbol xmlns="http://www.w3.org/2000/svg" viewBox="0 0 512 512" id="twitter">
    <path d="M459.37 151.716c.325 4.548.325 9.097.325 13.645 0 138.72-105.583 298.558-298.558 298.558-59.452 0-114.68-17.219-161.137-47.106 8.447.974 16.568 1.299 25.34 1.299 49.055 0 94.213-16.568 130.274-44.832-46.132-.975-84.792-31.188-98.112-72.772 6.498.974 12.995 1.624 19.818 1.624 9.421 0 18.843-1.3 27.614-3.573-48.081-9.747-84.143-51.98-84.143-102.985v-1.299c13.969 7.797 30.214 12.67 47.431 13.319-28.264-18.843-46.781-51.005-46.781-87.391 0-19.492 5.197-37.36 14.294-52.954 51.655 63.675 129.3 105.258 216.365 109.807-1.624-7.797-2.599-15.918-2.599-24.04 0-57.828 46.782-104.934 104.934-104.934 30.213 0 57.502 12.67 76.67 33.137 23.715-4.548 46.456-13.32 66.599-25.34-7.798 24.366-24.366 44.833-46.132 57.827 21.117-2.273 41.584-8.122 60.426-16.243-14.292 20.791-32.161 39.308-52.628 54.253z"></path>
  </symbol>
  <symbol version="1.1" xmlns="http://www.w3.org/2000/svg" viewBox="0 0 512 512" id="zoom-in">
    <g id="icomoon-ignore"></g>
    <path d="M496.131 435.698l-121.276-103.147c-12.537-11.283-25.945-16.463-36.776-15.963 28.628-33.534 45.921-77.039 45.921-124.588 0-106.039-85.961-192-192-192s-192 85.961-192 192 85.961 192 192 192c47.549 0 91.054-17.293 124.588-45.922-0.5 10.831 4.68 24.239 15.963 36.776l103.147 121.276c17.661 19.623 46.511 21.277 64.11 3.678s15.946-46.449-3.677-64.11zM192 320c-70.692 0-128-57.308-128-128s57.308-128 128-128 128 57.308 128 128-57.307 128-128 128zM224 96h-64v64h-64v64h64v64h64v-64h64v-64h-64z"></path>
  </symbol>
  <symbol xmlns="http://www.w3.org/2000/svg" viewBox="0 0 448 512" id="arrow-left">
    <path d="M447.1 256C447.1 273.7 433.7 288 416 288H109.3l105.4 105.4c12.5 12.5 12.5 32.75 0 45.25C208.4 444.9 200.2 448 192 448s-16.38-3.125-22.62-9.375l-160-160c-12.5-12.5-12.5-32.75 0-45.25l160-160c12.5-12.5 32.75-12.5 45.25 0s12.5 32.75 0 45.25L109.3 224H416C433.7 224 447.1 238.3 447.1 256z"></path>
  </symbol>
</svg>